<svg xmlns="http://www.w3.org/2000/svg" viewBox="0 0 64 64">
  <!-- Prosaurus: A T-Rex dinosaur forming the letter P -->
  <defs>
    <linearGradient id="dinoGrad" x1="0%" y1="0%" x2="100%" y2="100%">
      <stop offset="0%" style="stop-color:#42b983"/>
      <stop offset="60%" style="stop-color:#3aa876"/>
      <stop offset="100%" style="stop-color:#2d8659"/>
    </linearGradient>
    <linearGradient id="bellyGrad" x1="0%" y1="0%" x2="100%" y2="100%">
      <stop offset="0%" style="stop-color:#6fcf97"/>
      <stop offset="100%" style="stop-color:#42b983"/>
    </linearGradient>
  </defs>

  <!-- Tail curving out from body -->
  <path d="M20 52 Q8 54 4 48 Q2 44 6 42 Q10 40 14 44 Q16 48 20 48 Z"
        fill="url(#dinoGrad)"/>

  <!-- Tail spikes -->
  <path d="M6 44 L2 40 L8 42" fill="#2d8659"/>
  <path d="M10 42 L6 36 L14 40" fill="#2d8659"/>

  <!-- Body (vertical stroke of P) -->
  <path d="M18 18 L18 54 Q18 58 22 58 L26 58 Q30 58 30 54 L30 36"
        fill="url(#dinoGrad)"/>

  <!-- Belly highlight -->
  <ellipse cx="24" cy="46" rx="4" ry="8" fill="url(#bellyGrad)" opacity="0.5"/>

  <!-- Back leg -->
  <path d="M20 54 L16 62 L22 62 L24 56" fill="url(#dinoGrad)"/>
  <path d="M26 54 L28 62 L34 62 L30 56" fill="url(#dinoGrad)"/>

  <!-- Head (curved part of P forming dino head) -->
  <path d="M30 18 L30 28 Q30 34 38 34 L46 32 Q56 30 56 22 Q56 14 46 12 L38 12 Q30 12 30 18 Z"
        fill="url(#dinoGrad)"/>

  <!-- Snout extension -->
  <path d="M46 14 Q58 16 58 22 Q58 28 50 30 L46 32 Q54 28 54 22 Q54 16 46 14 Z"
        fill="url(#dinoGrad)"/>

  <!-- Dino eye -->
  <circle cx="42" cy="20" r="5" fill="white"/>
  <circle cx="44" cy="19" r="2.5" fill="#2c3e50"/>
  <circle cx="45" cy="18" r="1" fill="white"/>

  <!-- Nostril -->
  <circle cx="54" cy="20" r="1.5" fill="#2d8659"/>

  <!-- Mouth line -->
  <path d="M48 26 Q54 26 56 24" stroke="#2d8659" stroke-width="1.5" fill="none"/>

  <!-- Head spikes -->
  <path d="M34 12 L36 4 L40 12" fill="#2d8659"/>
  <path d="M42 12 L46 2 L50 12" fill="#2d8659"/>

  <!-- Small T-Rex arms -->
  <path d="M30 30 L24 34 L22 32 L20 36 L24 38 L28 34 L32 32"
        fill="url(#dinoGrad)" stroke="#2d8659" stroke-width="0.5"/>

  <!-- Arm claws -->
  <circle cx="20" cy="36" r="1" fill="#2d8659"/>
  <circle cx="22" cy="32" r="1" fill="#2d8659"/>
</svg>
